<mxfile host="Electron" agent="Mozilla/5.0 (Macintosh; Intel Mac OS X 10_15_7) AppleWebKit/537.36 (KHTML, like Gecko) draw.io/24.7.17 Chrome/128.0.6613.36 Electron/32.0.1 Safari/537.36" version="24.7.17">
  <diagram name="Page-1" id="tBIAlemMxgHySIvlNtww">
    <mxGraphModel dx="1026" dy="743" grid="1" gridSize="10" guides="1" tooltips="1" connect="1" arrows="1" fold="1" page="1" pageScale="1" pageWidth="1920" pageHeight="1200" math="0" shadow="0">
      <root>
        <mxCell id="0" />
        <mxCell id="1" parent="0" />
        <mxCell id="3qSw8xlSIoKtLvvU0-Wk-54" value="" style="rounded=0;whiteSpace=wrap;html=1;fillColor=none;" parent="1" vertex="1">
          <mxGeometry x="480" y="540" width="380" height="180" as="geometry" />
        </mxCell>
        <mxCell id="1DzeSscWP2DU88BONM4D-63" value="1&#39;b1" style="text;html=1;align=center;verticalAlign=middle;resizable=0;points=[];autosize=1;strokeColor=none;fillColor=none;" parent="1" vertex="1">
          <mxGeometry x="745" y="362" width="50" height="30" as="geometry" />
        </mxCell>
        <mxCell id="oi3GXKmJwpbIhsuQLX9E-4" value="" style="rounded=0;whiteSpace=wrap;html=1;fillColor=none;" parent="1" vertex="1">
          <mxGeometry x="80" y="540" width="240" height="150" as="geometry" />
        </mxCell>
        <mxCell id="YcG1K_yQFC_txdDWkhpD-151" value="&lt;p style=&quot;line-height: 0%;&quot;&gt;&lt;b&gt;DFF&lt;/b&gt;&lt;/p&gt;&lt;p&gt;&lt;/p&gt;" style="rounded=1;whiteSpace=wrap;html=1;" parent="1" vertex="1">
          <mxGeometry x="200" y="590" width="60" height="60" as="geometry" />
        </mxCell>
        <mxCell id="q5pX1_xFONWicA8Pv0eM-7" style="edgeStyle=orthogonalEdgeStyle;rounded=0;orthogonalLoop=1;jettySize=auto;html=1;exitX=1;exitY=0.5;exitDx=0;exitDy=0;endArrow=none;endFill=0;" parent="1" source="YcG1K_yQFC_txdDWkhpD-153" edge="1">
          <mxGeometry relative="1" as="geometry">
            <mxPoint x="160.10101010101016" y="650" as="targetPoint" />
          </mxGeometry>
        </mxCell>
        <mxCell id="YcG1K_yQFC_txdDWkhpD-153" value="" style="shape=trapezoid;perimeter=trapezoidPerimeter;whiteSpace=wrap;html=1;fixedSize=1;rotation=90;" parent="1" vertex="1">
          <mxGeometry x="120" y="580" width="80" height="40" as="geometry" />
        </mxCell>
        <mxCell id="YcG1K_yQFC_txdDWkhpD-154" value="&lt;b&gt;MUX&lt;/b&gt;" style="text;html=1;align=center;verticalAlign=middle;resizable=0;points=[];autosize=1;strokeColor=none;fillColor=none;" parent="1" vertex="1">
          <mxGeometry x="135" y="586" width="50" height="30" as="geometry" />
        </mxCell>
        <mxCell id="YcG1K_yQFC_txdDWkhpD-155" value="" style="endArrow=none;html=1;rounded=0;endFill=0;" parent="1" edge="1">
          <mxGeometry width="50" height="50" relative="1" as="geometry">
            <mxPoint x="180" y="600" as="sourcePoint" />
            <mxPoint x="200" y="600" as="targetPoint" />
          </mxGeometry>
        </mxCell>
        <mxCell id="YcG1K_yQFC_txdDWkhpD-156" value="" style="endArrow=classic;html=1;rounded=0;endFill=1;" parent="1" edge="1">
          <mxGeometry width="50" height="50" relative="1" as="geometry">
            <mxPoint x="260" y="600" as="sourcePoint" />
            <mxPoint x="280" y="600" as="targetPoint" />
          </mxGeometry>
        </mxCell>
        <mxCell id="q5pX1_xFONWicA8Pv0eM-1" value="" style="triangle;whiteSpace=wrap;html=1;rotation=-90;" parent="1" vertex="1">
          <mxGeometry x="226" y="638.5" width="8" height="14.5" as="geometry" />
        </mxCell>
        <mxCell id="q5pX1_xFONWicA8Pv0eM-2" value="" style="endArrow=none;html=1;rounded=0;" parent="1" edge="1">
          <mxGeometry width="50" height="50" relative="1" as="geometry">
            <mxPoint x="120" y="620" as="sourcePoint" />
            <mxPoint x="140" y="620" as="targetPoint" />
          </mxGeometry>
        </mxCell>
        <mxCell id="q5pX1_xFONWicA8Pv0eM-3" value="" style="endArrow=none;html=1;rounded=0;" parent="1" edge="1">
          <mxGeometry width="50" height="50" relative="1" as="geometry">
            <mxPoint x="120" y="580" as="sourcePoint" />
            <mxPoint x="140" y="580" as="targetPoint" />
          </mxGeometry>
        </mxCell>
        <mxCell id="q5pX1_xFONWicA8Pv0eM-6" value="rst" style="text;html=1;align=center;verticalAlign=middle;resizable=0;points=[];autosize=1;strokeColor=none;fillColor=none;" parent="1" vertex="1">
          <mxGeometry x="89" y="605" width="40" height="30" as="geometry" />
        </mxCell>
        <mxCell id="q5pX1_xFONWicA8Pv0eM-8" value="rst_n" style="text;html=1;align=center;verticalAlign=middle;resizable=0;points=[];autosize=1;strokeColor=none;fillColor=none;" parent="1" vertex="1">
          <mxGeometry x="135" y="641.5" width="50" height="30" as="geometry" />
        </mxCell>
        <mxCell id="q5pX1_xFONWicA8Pv0eM-9" style="edgeStyle=orthogonalEdgeStyle;rounded=0;orthogonalLoop=1;jettySize=auto;html=1;exitX=1;exitY=0.5;exitDx=0;exitDy=0;endArrow=none;endFill=0;" parent="1" edge="1">
          <mxGeometry relative="1" as="geometry">
            <mxPoint x="230" y="660" as="targetPoint" />
            <mxPoint x="229.9000000000001" y="650" as="sourcePoint" />
          </mxGeometry>
        </mxCell>
        <mxCell id="q5pX1_xFONWicA8Pv0eM-10" value="clk" style="text;html=1;align=center;verticalAlign=middle;resizable=0;points=[];autosize=1;strokeColor=none;fillColor=none;" parent="1" vertex="1">
          <mxGeometry x="209" y="652" width="40" height="30" as="geometry" />
        </mxCell>
        <mxCell id="q5pX1_xFONWicA8Pv0eM-24" value="0" style="text;html=1;align=center;verticalAlign=middle;resizable=0;points=[];autosize=1;strokeColor=none;fillColor=none;fontSize=10;fontColor=#999999;" parent="1" vertex="1">
          <mxGeometry x="130" y="604.5" width="30" height="30" as="geometry" />
        </mxCell>
        <mxCell id="q5pX1_xFONWicA8Pv0eM-25" value="1" style="text;html=1;align=center;verticalAlign=middle;resizable=0;points=[];autosize=1;strokeColor=none;fillColor=none;fontColor=#999999;fontSize=10;" parent="1" vertex="1">
          <mxGeometry x="130" y="563.5" width="30" height="30" as="geometry" />
        </mxCell>
        <mxCell id="q5pX1_xFONWicA8Pv0eM-27" value="out" style="text;html=1;align=center;verticalAlign=middle;resizable=0;points=[];autosize=1;strokeColor=none;fillColor=none;" parent="1" vertex="1">
          <mxGeometry x="274" y="585" width="40" height="30" as="geometry" />
        </mxCell>
        <mxCell id="q5pX1_xFONWicA8Pv0eM-29" value="&lt;div style=&quot;color: rgb(248, 248, 242); background-color: rgb(38, 41, 44); font-family: &amp;quot;Fira Code&amp;quot;, Consolas, &amp;quot;Courier New&amp;quot;, monospace, Menlo, Monaco, &amp;quot;Courier New&amp;quot;, monospace; font-size: 16px; line-height: 24px; white-space-collapse: preserve;&quot;&gt;DFF_with_reset&lt;/div&gt;" style="text;html=1;align=center;verticalAlign=middle;resizable=0;points=[];autosize=1;strokeColor=none;fillColor=none;" parent="1" vertex="1">
          <mxGeometry x="50" y="500" width="160" height="40" as="geometry" />
        </mxCell>
        <mxCell id="oi3GXKmJwpbIhsuQLX9E-1" value="D" style="text;html=1;align=center;verticalAlign=middle;resizable=0;points=[];autosize=1;strokeColor=none;fillColor=none;" parent="1" vertex="1">
          <mxGeometry x="98" y="565" width="30" height="30" as="geometry" />
        </mxCell>
        <mxCell id="oi3GXKmJwpbIhsuQLX9E-2" value="D" style="text;html=1;align=center;verticalAlign=middle;resizable=0;points=[];autosize=1;strokeColor=none;fillColor=none;fontColor=#999999;" parent="1" vertex="1">
          <mxGeometry x="193" y="586" width="30" height="30" as="geometry" />
        </mxCell>
        <mxCell id="oi3GXKmJwpbIhsuQLX9E-3" value="Q" style="text;html=1;align=center;verticalAlign=middle;resizable=0;points=[];autosize=1;strokeColor=none;fillColor=none;fontColor=#999999;" parent="1" vertex="1">
          <mxGeometry x="237" y="586" width="30" height="30" as="geometry" />
        </mxCell>
        <mxCell id="oi3GXKmJwpbIhsuQLX9E-5" value="&lt;p style=&quot;line-height: 0%;&quot;&gt;&lt;b&gt;DFF&lt;/b&gt;&lt;/p&gt;&lt;p style=&quot;line-height: 0%;&quot;&gt;&lt;font style=&quot;font-size: 9px;&quot;&gt;w/ reset&lt;/font&gt;&lt;/p&gt;&lt;p&gt;&lt;/p&gt;" style="rounded=1;whiteSpace=wrap;html=1;" parent="1" vertex="1">
          <mxGeometry x="200" y="300" width="60" height="60" as="geometry" />
        </mxCell>
        <mxCell id="oi3GXKmJwpbIhsuQLX9E-6" value="" style="triangle;whiteSpace=wrap;html=1;rotation=-90;" parent="1" vertex="1">
          <mxGeometry x="227" y="352" width="6" height="10" as="geometry" />
        </mxCell>
        <mxCell id="oi3GXKmJwpbIhsuQLX9E-7" value="" style="endArrow=classic;html=1;rounded=0;exitX=1;exitY=0.5;exitDx=0;exitDy=0;endSize=4;" parent="1" edge="1">
          <mxGeometry width="50" height="50" relative="1" as="geometry">
            <mxPoint x="260" y="320" as="sourcePoint" />
            <mxPoint x="280" y="320" as="targetPoint" />
          </mxGeometry>
        </mxCell>
        <mxCell id="oi3GXKmJwpbIhsuQLX9E-8" value="" style="endArrow=classic;html=1;rounded=0;endSize=4;entryX=0;entryY=0.5;entryDx=0;entryDy=0;" parent="1" target="oi3GXKmJwpbIhsuQLX9E-6" edge="1">
          <mxGeometry width="50" height="50" relative="1" as="geometry">
            <mxPoint x="230" y="390" as="sourcePoint" />
            <mxPoint x="200" y="390" as="targetPoint" />
          </mxGeometry>
        </mxCell>
        <mxCell id="oi3GXKmJwpbIhsuQLX9E-9" value="" style="endArrow=classic;html=1;rounded=0;endSize=4;entryX=0;entryY=0.5;entryDx=0;entryDy=0;" parent="1" edge="1">
          <mxGeometry width="50" height="50" relative="1" as="geometry">
            <mxPoint x="210" y="370" as="sourcePoint" />
            <mxPoint x="210" y="360" as="targetPoint" />
          </mxGeometry>
        </mxCell>
        <mxCell id="oi3GXKmJwpbIhsuQLX9E-10" value="" style="endArrow=classic;html=1;rounded=0;endSize=4;" parent="1" edge="1">
          <mxGeometry width="50" height="50" relative="1" as="geometry">
            <mxPoint x="250" y="400" as="sourcePoint" />
            <mxPoint x="250" y="360" as="targetPoint" />
          </mxGeometry>
        </mxCell>
        <mxCell id="oi3GXKmJwpbIhsuQLX9E-11" value="1&#39;b1" style="text;html=1;align=center;verticalAlign=middle;resizable=0;points=[];autosize=1;strokeColor=none;fillColor=none;" parent="1" vertex="1">
          <mxGeometry x="185" y="362" width="50" height="30" as="geometry" />
        </mxCell>
        <mxCell id="1DzeSscWP2DU88BONM4D-1" value="" style="shape=ellipse;fillColor=#000000;strokeColor=none;html=1;sketch=0;fontFamily=Helvetica;fontSize=11;fontColor=default;labelBackgroundColor=default;" parent="1" vertex="1">
          <mxGeometry x="227" y="387" width="6" height="6" as="geometry" />
        </mxCell>
        <mxCell id="1DzeSscWP2DU88BONM4D-2" value="" style="shape=ellipse;fillColor=#000000;strokeColor=none;html=1;sketch=0;fontFamily=Helvetica;fontSize=11;fontColor=default;labelBackgroundColor=default;" parent="1" vertex="1">
          <mxGeometry x="247" y="397" width="6" height="6" as="geometry" />
        </mxCell>
        <mxCell id="1DzeSscWP2DU88BONM4D-3" value="&lt;p style=&quot;line-height: 0%;&quot;&gt;&lt;b&gt;DFF&lt;/b&gt;&lt;/p&gt;&lt;p style=&quot;line-height: 0%;&quot;&gt;&lt;font style=&quot;font-size: 9px;&quot;&gt;w/ reset&lt;/font&gt;&lt;/p&gt;&lt;p&gt;&lt;/p&gt;" style="rounded=1;whiteSpace=wrap;html=1;" parent="1" vertex="1">
          <mxGeometry x="280" y="300" width="60" height="60" as="geometry" />
        </mxCell>
        <mxCell id="1DzeSscWP2DU88BONM4D-4" value="" style="triangle;whiteSpace=wrap;html=1;rotation=-90;" parent="1" vertex="1">
          <mxGeometry x="307" y="352" width="6" height="10" as="geometry" />
        </mxCell>
        <mxCell id="1DzeSscWP2DU88BONM4D-5" value="" style="endArrow=classic;html=1;rounded=0;exitX=1;exitY=0.5;exitDx=0;exitDy=0;endSize=4;" parent="1" edge="1">
          <mxGeometry width="50" height="50" relative="1" as="geometry">
            <mxPoint x="340" y="320" as="sourcePoint" />
            <mxPoint x="360" y="320" as="targetPoint" />
          </mxGeometry>
        </mxCell>
        <mxCell id="1DzeSscWP2DU88BONM4D-6" value="" style="endArrow=classic;html=1;rounded=0;endSize=4;entryX=0;entryY=0.5;entryDx=0;entryDy=0;" parent="1" target="1DzeSscWP2DU88BONM4D-4" edge="1">
          <mxGeometry width="50" height="50" relative="1" as="geometry">
            <mxPoint x="310" y="390" as="sourcePoint" />
            <mxPoint x="280" y="390" as="targetPoint" />
          </mxGeometry>
        </mxCell>
        <mxCell id="1DzeSscWP2DU88BONM4D-7" value="" style="endArrow=classic;html=1;rounded=0;endSize=4;entryX=0;entryY=0.5;entryDx=0;entryDy=0;" parent="1" edge="1">
          <mxGeometry width="50" height="50" relative="1" as="geometry">
            <mxPoint x="290" y="370" as="sourcePoint" />
            <mxPoint x="290" y="360" as="targetPoint" />
          </mxGeometry>
        </mxCell>
        <mxCell id="1DzeSscWP2DU88BONM4D-8" value="" style="endArrow=classic;html=1;rounded=0;endSize=4;" parent="1" edge="1">
          <mxGeometry width="50" height="50" relative="1" as="geometry">
            <mxPoint x="330" y="400" as="sourcePoint" />
            <mxPoint x="330" y="360" as="targetPoint" />
          </mxGeometry>
        </mxCell>
        <mxCell id="1DzeSscWP2DU88BONM4D-9" value="1&#39;b0" style="text;html=1;align=center;verticalAlign=middle;resizable=0;points=[];autosize=1;strokeColor=none;fillColor=none;" parent="1" vertex="1">
          <mxGeometry x="265" y="362" width="50" height="30" as="geometry" />
        </mxCell>
        <mxCell id="1DzeSscWP2DU88BONM4D-10" value="" style="shape=ellipse;fillColor=#000000;strokeColor=none;html=1;sketch=0;fontFamily=Helvetica;fontSize=11;fontColor=default;labelBackgroundColor=default;" parent="1" vertex="1">
          <mxGeometry x="307" y="387" width="6" height="6" as="geometry" />
        </mxCell>
        <mxCell id="1DzeSscWP2DU88BONM4D-11" value="" style="shape=ellipse;fillColor=#000000;strokeColor=none;html=1;sketch=0;fontFamily=Helvetica;fontSize=11;fontColor=default;labelBackgroundColor=default;" parent="1" vertex="1">
          <mxGeometry x="327" y="397" width="6" height="6" as="geometry" />
        </mxCell>
        <mxCell id="1DzeSscWP2DU88BONM4D-12" value="&lt;p style=&quot;line-height: 0%;&quot;&gt;&lt;b&gt;DFF&lt;/b&gt;&lt;/p&gt;&lt;p style=&quot;line-height: 0%;&quot;&gt;&lt;font style=&quot;font-size: 9px;&quot;&gt;w/ reset&lt;/font&gt;&lt;/p&gt;&lt;p&gt;&lt;/p&gt;" style="rounded=1;whiteSpace=wrap;html=1;" parent="1" vertex="1">
          <mxGeometry x="360" y="300" width="60" height="60" as="geometry" />
        </mxCell>
        <mxCell id="1DzeSscWP2DU88BONM4D-13" value="" style="triangle;whiteSpace=wrap;html=1;rotation=-90;" parent="1" vertex="1">
          <mxGeometry x="387" y="352" width="6" height="10" as="geometry" />
        </mxCell>
        <mxCell id="1DzeSscWP2DU88BONM4D-14" value="" style="endArrow=classic;html=1;rounded=0;exitX=1;exitY=0.5;exitDx=0;exitDy=0;endSize=4;" parent="1" edge="1">
          <mxGeometry width="50" height="50" relative="1" as="geometry">
            <mxPoint x="420" y="320" as="sourcePoint" />
            <mxPoint x="440" y="320" as="targetPoint" />
          </mxGeometry>
        </mxCell>
        <mxCell id="1DzeSscWP2DU88BONM4D-15" value="" style="endArrow=classic;html=1;rounded=0;endSize=4;entryX=0;entryY=0.5;entryDx=0;entryDy=0;" parent="1" target="1DzeSscWP2DU88BONM4D-13" edge="1">
          <mxGeometry width="50" height="50" relative="1" as="geometry">
            <mxPoint x="390" y="390" as="sourcePoint" />
            <mxPoint x="360" y="390" as="targetPoint" />
          </mxGeometry>
        </mxCell>
        <mxCell id="1DzeSscWP2DU88BONM4D-16" value="" style="endArrow=classic;html=1;rounded=0;endSize=4;entryX=0;entryY=0.5;entryDx=0;entryDy=0;" parent="1" edge="1">
          <mxGeometry width="50" height="50" relative="1" as="geometry">
            <mxPoint x="370" y="370" as="sourcePoint" />
            <mxPoint x="370" y="360" as="targetPoint" />
          </mxGeometry>
        </mxCell>
        <mxCell id="1DzeSscWP2DU88BONM4D-17" value="" style="endArrow=classic;html=1;rounded=0;endSize=4;" parent="1" edge="1">
          <mxGeometry width="50" height="50" relative="1" as="geometry">
            <mxPoint x="410" y="400" as="sourcePoint" />
            <mxPoint x="410" y="360" as="targetPoint" />
          </mxGeometry>
        </mxCell>
        <mxCell id="1DzeSscWP2DU88BONM4D-18" value="1&#39;b1" style="text;html=1;align=center;verticalAlign=middle;resizable=0;points=[];autosize=1;strokeColor=none;fillColor=none;" parent="1" vertex="1">
          <mxGeometry x="345" y="362" width="50" height="30" as="geometry" />
        </mxCell>
        <mxCell id="1DzeSscWP2DU88BONM4D-19" value="" style="shape=ellipse;fillColor=#000000;strokeColor=none;html=1;sketch=0;fontFamily=Helvetica;fontSize=11;fontColor=default;labelBackgroundColor=default;" parent="1" vertex="1">
          <mxGeometry x="387" y="387" width="6" height="6" as="geometry" />
        </mxCell>
        <mxCell id="1DzeSscWP2DU88BONM4D-20" value="" style="shape=ellipse;fillColor=#000000;strokeColor=none;html=1;sketch=0;fontFamily=Helvetica;fontSize=11;fontColor=default;labelBackgroundColor=default;" parent="1" vertex="1">
          <mxGeometry x="407" y="397" width="6" height="6" as="geometry" />
        </mxCell>
        <mxCell id="1DzeSscWP2DU88BONM4D-21" value="&lt;p style=&quot;line-height: 0%;&quot;&gt;&lt;b&gt;DFF&lt;/b&gt;&lt;/p&gt;&lt;p style=&quot;line-height: 0%;&quot;&gt;&lt;font style=&quot;font-size: 9px;&quot;&gt;w/ reset&lt;/font&gt;&lt;/p&gt;&lt;p&gt;&lt;/p&gt;" style="rounded=1;whiteSpace=wrap;html=1;" parent="1" vertex="1">
          <mxGeometry x="440" y="300" width="60" height="60" as="geometry" />
        </mxCell>
        <mxCell id="1DzeSscWP2DU88BONM4D-22" value="" style="triangle;whiteSpace=wrap;html=1;rotation=-90;" parent="1" vertex="1">
          <mxGeometry x="467" y="352" width="6" height="10" as="geometry" />
        </mxCell>
        <mxCell id="1DzeSscWP2DU88BONM4D-23" value="" style="endArrow=classic;html=1;rounded=0;exitX=1;exitY=0.5;exitDx=0;exitDy=0;endSize=4;" parent="1" edge="1">
          <mxGeometry width="50" height="50" relative="1" as="geometry">
            <mxPoint x="500" y="320" as="sourcePoint" />
            <mxPoint x="520" y="320" as="targetPoint" />
          </mxGeometry>
        </mxCell>
        <mxCell id="1DzeSscWP2DU88BONM4D-24" value="" style="endArrow=classic;html=1;rounded=0;endSize=4;entryX=0;entryY=0.5;entryDx=0;entryDy=0;" parent="1" target="1DzeSscWP2DU88BONM4D-22" edge="1">
          <mxGeometry width="50" height="50" relative="1" as="geometry">
            <mxPoint x="470" y="390" as="sourcePoint" />
            <mxPoint x="440" y="390" as="targetPoint" />
          </mxGeometry>
        </mxCell>
        <mxCell id="1DzeSscWP2DU88BONM4D-25" value="" style="endArrow=classic;html=1;rounded=0;endSize=4;entryX=0;entryY=0.5;entryDx=0;entryDy=0;" parent="1" edge="1">
          <mxGeometry width="50" height="50" relative="1" as="geometry">
            <mxPoint x="450" y="370" as="sourcePoint" />
            <mxPoint x="450" y="360" as="targetPoint" />
          </mxGeometry>
        </mxCell>
        <mxCell id="1DzeSscWP2DU88BONM4D-26" value="" style="endArrow=classic;html=1;rounded=0;endSize=4;" parent="1" edge="1">
          <mxGeometry width="50" height="50" relative="1" as="geometry">
            <mxPoint x="490" y="400" as="sourcePoint" />
            <mxPoint x="490" y="360" as="targetPoint" />
          </mxGeometry>
        </mxCell>
        <mxCell id="1DzeSscWP2DU88BONM4D-27" value="1&#39;b1" style="text;html=1;align=center;verticalAlign=middle;resizable=0;points=[];autosize=1;strokeColor=none;fillColor=none;" parent="1" vertex="1">
          <mxGeometry x="425" y="362" width="50" height="30" as="geometry" />
        </mxCell>
        <mxCell id="1DzeSscWP2DU88BONM4D-28" value="" style="shape=ellipse;fillColor=#000000;strokeColor=none;html=1;sketch=0;fontFamily=Helvetica;fontSize=11;fontColor=default;labelBackgroundColor=default;" parent="1" vertex="1">
          <mxGeometry x="467" y="387" width="6" height="6" as="geometry" />
        </mxCell>
        <mxCell id="1DzeSscWP2DU88BONM4D-29" value="" style="shape=ellipse;fillColor=#000000;strokeColor=none;html=1;sketch=0;fontFamily=Helvetica;fontSize=11;fontColor=default;labelBackgroundColor=default;" parent="1" vertex="1">
          <mxGeometry x="487" y="397" width="6" height="6" as="geometry" />
        </mxCell>
        <mxCell id="1DzeSscWP2DU88BONM4D-30" value="&lt;p style=&quot;line-height: 0%;&quot;&gt;&lt;b&gt;DFF&lt;/b&gt;&lt;/p&gt;&lt;p style=&quot;line-height: 0%;&quot;&gt;&lt;font style=&quot;font-size: 9px;&quot;&gt;w/ reset&lt;/font&gt;&lt;/p&gt;&lt;p&gt;&lt;/p&gt;" style="rounded=1;whiteSpace=wrap;html=1;" parent="1" vertex="1">
          <mxGeometry x="520" y="300" width="60" height="60" as="geometry" />
        </mxCell>
        <mxCell id="1DzeSscWP2DU88BONM4D-31" value="" style="triangle;whiteSpace=wrap;html=1;rotation=-90;" parent="1" vertex="1">
          <mxGeometry x="547" y="352" width="6" height="10" as="geometry" />
        </mxCell>
        <mxCell id="1DzeSscWP2DU88BONM4D-32" value="" style="endArrow=classic;html=1;rounded=0;exitX=1;exitY=0.5;exitDx=0;exitDy=0;endSize=4;" parent="1" edge="1">
          <mxGeometry width="50" height="50" relative="1" as="geometry">
            <mxPoint x="580" y="320" as="sourcePoint" />
            <mxPoint x="600" y="320" as="targetPoint" />
          </mxGeometry>
        </mxCell>
        <mxCell id="1DzeSscWP2DU88BONM4D-33" value="" style="endArrow=classic;html=1;rounded=0;endSize=4;entryX=0;entryY=0.5;entryDx=0;entryDy=0;" parent="1" target="1DzeSscWP2DU88BONM4D-31" edge="1">
          <mxGeometry width="50" height="50" relative="1" as="geometry">
            <mxPoint x="550" y="390" as="sourcePoint" />
            <mxPoint x="520" y="390" as="targetPoint" />
          </mxGeometry>
        </mxCell>
        <mxCell id="1DzeSscWP2DU88BONM4D-34" value="" style="endArrow=classic;html=1;rounded=0;endSize=4;entryX=0;entryY=0.5;entryDx=0;entryDy=0;" parent="1" edge="1">
          <mxGeometry width="50" height="50" relative="1" as="geometry">
            <mxPoint x="530" y="370" as="sourcePoint" />
            <mxPoint x="530" y="360" as="targetPoint" />
          </mxGeometry>
        </mxCell>
        <mxCell id="1DzeSscWP2DU88BONM4D-35" value="" style="endArrow=classic;html=1;rounded=0;endSize=4;" parent="1" edge="1">
          <mxGeometry width="50" height="50" relative="1" as="geometry">
            <mxPoint x="570" y="400" as="sourcePoint" />
            <mxPoint x="570" y="360" as="targetPoint" />
          </mxGeometry>
        </mxCell>
        <mxCell id="1DzeSscWP2DU88BONM4D-36" value="1&#39;b1" style="text;html=1;align=center;verticalAlign=middle;resizable=0;points=[];autosize=1;strokeColor=none;fillColor=none;" parent="1" vertex="1">
          <mxGeometry x="505" y="362" width="50" height="30" as="geometry" />
        </mxCell>
        <mxCell id="1DzeSscWP2DU88BONM4D-37" value="" style="shape=ellipse;fillColor=#000000;strokeColor=none;html=1;sketch=0;fontFamily=Helvetica;fontSize=11;fontColor=default;labelBackgroundColor=default;" parent="1" vertex="1">
          <mxGeometry x="547" y="387" width="6" height="6" as="geometry" />
        </mxCell>
        <mxCell id="1DzeSscWP2DU88BONM4D-38" value="" style="shape=ellipse;fillColor=#000000;strokeColor=none;html=1;sketch=0;fontFamily=Helvetica;fontSize=11;fontColor=default;labelBackgroundColor=default;" parent="1" vertex="1">
          <mxGeometry x="567" y="397" width="6" height="6" as="geometry" />
        </mxCell>
        <mxCell id="1DzeSscWP2DU88BONM4D-39" value="&lt;p style=&quot;line-height: 0%;&quot;&gt;&lt;b&gt;DFF&lt;/b&gt;&lt;/p&gt;&lt;p style=&quot;line-height: 0%;&quot;&gt;&lt;font style=&quot;font-size: 9px;&quot;&gt;w/ reset&lt;/font&gt;&lt;/p&gt;&lt;p&gt;&lt;/p&gt;" style="rounded=1;whiteSpace=wrap;html=1;" parent="1" vertex="1">
          <mxGeometry x="600" y="300" width="60" height="60" as="geometry" />
        </mxCell>
        <mxCell id="1DzeSscWP2DU88BONM4D-40" value="" style="triangle;whiteSpace=wrap;html=1;rotation=-90;" parent="1" vertex="1">
          <mxGeometry x="627" y="352" width="6" height="10" as="geometry" />
        </mxCell>
        <mxCell id="1DzeSscWP2DU88BONM4D-41" value="" style="endArrow=classic;html=1;rounded=0;exitX=1;exitY=0.5;exitDx=0;exitDy=0;endSize=4;" parent="1" edge="1">
          <mxGeometry width="50" height="50" relative="1" as="geometry">
            <mxPoint x="660" y="320" as="sourcePoint" />
            <mxPoint x="680" y="320" as="targetPoint" />
          </mxGeometry>
        </mxCell>
        <mxCell id="1DzeSscWP2DU88BONM4D-42" value="" style="endArrow=classic;html=1;rounded=0;endSize=4;entryX=0;entryY=0.5;entryDx=0;entryDy=0;" parent="1" target="1DzeSscWP2DU88BONM4D-40" edge="1">
          <mxGeometry width="50" height="50" relative="1" as="geometry">
            <mxPoint x="630" y="390" as="sourcePoint" />
            <mxPoint x="600" y="390" as="targetPoint" />
          </mxGeometry>
        </mxCell>
        <mxCell id="1DzeSscWP2DU88BONM4D-43" value="" style="endArrow=classic;html=1;rounded=0;endSize=4;entryX=0;entryY=0.5;entryDx=0;entryDy=0;" parent="1" edge="1">
          <mxGeometry width="50" height="50" relative="1" as="geometry">
            <mxPoint x="610" y="370" as="sourcePoint" />
            <mxPoint x="610" y="360" as="targetPoint" />
          </mxGeometry>
        </mxCell>
        <mxCell id="1DzeSscWP2DU88BONM4D-44" value="" style="endArrow=classic;html=1;rounded=0;endSize=4;" parent="1" edge="1">
          <mxGeometry width="50" height="50" relative="1" as="geometry">
            <mxPoint x="650" y="400" as="sourcePoint" />
            <mxPoint x="650" y="360" as="targetPoint" />
          </mxGeometry>
        </mxCell>
        <mxCell id="1DzeSscWP2DU88BONM4D-45" value="1&#39;b1" style="text;html=1;align=center;verticalAlign=middle;resizable=0;points=[];autosize=1;strokeColor=none;fillColor=none;" parent="1" vertex="1">
          <mxGeometry x="585" y="362" width="50" height="30" as="geometry" />
        </mxCell>
        <mxCell id="1DzeSscWP2DU88BONM4D-46" value="" style="shape=ellipse;fillColor=#000000;strokeColor=none;html=1;sketch=0;fontFamily=Helvetica;fontSize=11;fontColor=default;labelBackgroundColor=default;" parent="1" vertex="1">
          <mxGeometry x="627" y="387" width="6" height="6" as="geometry" />
        </mxCell>
        <mxCell id="1DzeSscWP2DU88BONM4D-47" value="" style="shape=ellipse;fillColor=#000000;strokeColor=none;html=1;sketch=0;fontFamily=Helvetica;fontSize=11;fontColor=default;labelBackgroundColor=default;" parent="1" vertex="1">
          <mxGeometry x="647" y="397" width="6" height="6" as="geometry" />
        </mxCell>
        <mxCell id="1DzeSscWP2DU88BONM4D-48" value="&lt;p style=&quot;line-height: 0%;&quot;&gt;&lt;b&gt;DFF&lt;/b&gt;&lt;/p&gt;&lt;p style=&quot;line-height: 0%;&quot;&gt;&lt;font style=&quot;font-size: 9px;&quot;&gt;w/ reset&lt;/font&gt;&lt;/p&gt;&lt;p&gt;&lt;/p&gt;" style="rounded=1;whiteSpace=wrap;html=1;" parent="1" vertex="1">
          <mxGeometry x="680" y="300" width="60" height="60" as="geometry" />
        </mxCell>
        <mxCell id="1DzeSscWP2DU88BONM4D-49" value="" style="triangle;whiteSpace=wrap;html=1;rotation=-90;" parent="1" vertex="1">
          <mxGeometry x="707" y="352" width="6" height="10" as="geometry" />
        </mxCell>
        <mxCell id="1DzeSscWP2DU88BONM4D-50" value="" style="endArrow=classic;html=1;rounded=0;exitX=1;exitY=0.5;exitDx=0;exitDy=0;endSize=4;" parent="1" edge="1">
          <mxGeometry width="50" height="50" relative="1" as="geometry">
            <mxPoint x="740" y="320" as="sourcePoint" />
            <mxPoint x="760" y="320" as="targetPoint" />
          </mxGeometry>
        </mxCell>
        <mxCell id="1DzeSscWP2DU88BONM4D-51" value="" style="endArrow=classic;html=1;rounded=0;endSize=4;entryX=0;entryY=0.5;entryDx=0;entryDy=0;" parent="1" target="1DzeSscWP2DU88BONM4D-49" edge="1">
          <mxGeometry width="50" height="50" relative="1" as="geometry">
            <mxPoint x="710" y="390" as="sourcePoint" />
            <mxPoint x="680" y="390" as="targetPoint" />
          </mxGeometry>
        </mxCell>
        <mxCell id="1DzeSscWP2DU88BONM4D-52" value="" style="endArrow=classic;html=1;rounded=0;endSize=4;entryX=0;entryY=0.5;entryDx=0;entryDy=0;" parent="1" edge="1">
          <mxGeometry width="50" height="50" relative="1" as="geometry">
            <mxPoint x="690" y="370" as="sourcePoint" />
            <mxPoint x="690" y="360" as="targetPoint" />
          </mxGeometry>
        </mxCell>
        <mxCell id="1DzeSscWP2DU88BONM4D-53" value="" style="endArrow=classic;html=1;rounded=0;endSize=4;" parent="1" edge="1">
          <mxGeometry width="50" height="50" relative="1" as="geometry">
            <mxPoint x="730" y="400" as="sourcePoint" />
            <mxPoint x="730" y="360" as="targetPoint" />
          </mxGeometry>
        </mxCell>
        <mxCell id="1DzeSscWP2DU88BONM4D-54" value="1&#39;b0" style="text;html=1;align=center;verticalAlign=middle;resizable=0;points=[];autosize=1;strokeColor=none;fillColor=none;" parent="1" vertex="1">
          <mxGeometry x="665" y="362" width="50" height="30" as="geometry" />
        </mxCell>
        <mxCell id="1DzeSscWP2DU88BONM4D-55" value="" style="shape=ellipse;fillColor=#000000;strokeColor=none;html=1;sketch=0;fontFamily=Helvetica;fontSize=11;fontColor=default;labelBackgroundColor=default;" parent="1" vertex="1">
          <mxGeometry x="707" y="387" width="6" height="6" as="geometry" />
        </mxCell>
        <mxCell id="1DzeSscWP2DU88BONM4D-56" value="" style="shape=ellipse;fillColor=#000000;strokeColor=none;html=1;sketch=0;fontFamily=Helvetica;fontSize=11;fontColor=default;labelBackgroundColor=default;" parent="1" vertex="1">
          <mxGeometry x="727" y="397" width="6" height="6" as="geometry" />
        </mxCell>
        <mxCell id="1DzeSscWP2DU88BONM4D-57" value="&lt;p style=&quot;line-height: 0%;&quot;&gt;&lt;b&gt;DFF&lt;/b&gt;&lt;/p&gt;&lt;p style=&quot;line-height: 0%;&quot;&gt;&lt;font style=&quot;font-size: 9px;&quot;&gt;w/ reset&lt;/font&gt;&lt;/p&gt;&lt;p&gt;&lt;/p&gt;" style="rounded=1;whiteSpace=wrap;html=1;" parent="1" vertex="1">
          <mxGeometry x="760" y="300" width="60" height="60" as="geometry" />
        </mxCell>
        <mxCell id="1DzeSscWP2DU88BONM4D-58" value="" style="triangle;whiteSpace=wrap;html=1;rotation=-90;" parent="1" vertex="1">
          <mxGeometry x="787" y="352" width="6" height="10" as="geometry" />
        </mxCell>
        <mxCell id="1DzeSscWP2DU88BONM4D-59" value="" style="endArrow=classic;html=1;rounded=0;exitX=1;exitY=0.5;exitDx=0;exitDy=0;endSize=4;" parent="1" edge="1">
          <mxGeometry width="50" height="50" relative="1" as="geometry">
            <mxPoint x="820" y="320" as="sourcePoint" />
            <mxPoint x="850" y="320" as="targetPoint" />
          </mxGeometry>
        </mxCell>
        <mxCell id="1DzeSscWP2DU88BONM4D-60" value="" style="endArrow=classic;html=1;rounded=0;endSize=4;entryX=0;entryY=0.5;entryDx=0;entryDy=0;edgeStyle=orthogonalEdgeStyle;" parent="1" target="1DzeSscWP2DU88BONM4D-58" edge="1">
          <mxGeometry width="50" height="50" relative="1" as="geometry">
            <mxPoint x="180" y="390" as="sourcePoint" />
            <mxPoint x="760" y="390" as="targetPoint" />
            <Array as="points">
              <mxPoint x="790" y="390" />
            </Array>
          </mxGeometry>
        </mxCell>
        <mxCell id="1DzeSscWP2DU88BONM4D-61" value="" style="endArrow=classic;html=1;rounded=0;endSize=4;entryX=0;entryY=0.5;entryDx=0;entryDy=0;" parent="1" edge="1">
          <mxGeometry width="50" height="50" relative="1" as="geometry">
            <mxPoint x="770" y="370" as="sourcePoint" />
            <mxPoint x="770" y="360" as="targetPoint" />
          </mxGeometry>
        </mxCell>
        <mxCell id="1DzeSscWP2DU88BONM4D-62" value="" style="endArrow=classic;html=1;rounded=0;endSize=4;edgeStyle=orthogonalEdgeStyle;" parent="1" edge="1">
          <mxGeometry width="50" height="50" relative="1" as="geometry">
            <mxPoint x="179.2941176470588" y="400" as="sourcePoint" />
            <mxPoint x="810" y="360" as="targetPoint" />
            <Array as="points">
              <mxPoint x="810" y="400" />
            </Array>
          </mxGeometry>
        </mxCell>
        <mxCell id="1DzeSscWP2DU88BONM4D-64" value="" style="shape=ellipse;fillColor=#000000;strokeColor=none;html=1;sketch=0;fontFamily=Helvetica;fontSize=11;fontColor=default;labelBackgroundColor=default;" parent="1" vertex="1">
          <mxGeometry x="787" y="387" width="6" height="6" as="geometry" />
        </mxCell>
        <mxCell id="1DzeSscWP2DU88BONM4D-65" value="" style="shape=ellipse;fillColor=#000000;strokeColor=none;html=1;sketch=0;fontFamily=Helvetica;fontSize=11;fontColor=default;labelBackgroundColor=default;" parent="1" vertex="1">
          <mxGeometry x="807" y="397" width="6" height="6" as="geometry" />
        </mxCell>
        <mxCell id="1DzeSscWP2DU88BONM4D-66" value="" style="endArrow=none;html=1;rounded=0;entryX=0;entryY=0.25;entryDx=0;entryDy=0;entryPerimeter=0;endFill=0;" parent="1" target="3qSw8xlSIoKtLvvU0-Wk-1" edge="1">
          <mxGeometry width="50" height="50" relative="1" as="geometry">
            <mxPoint x="350" y="320" as="sourcePoint" />
            <mxPoint x="340" y="280" as="targetPoint" />
            <Array as="points">
              <mxPoint x="350" y="280" />
            </Array>
          </mxGeometry>
        </mxCell>
        <mxCell id="3qSw8xlSIoKtLvvU0-Wk-1" value="" style="verticalLabelPosition=bottom;shadow=0;dashed=0;align=center;html=1;verticalAlign=top;shape=mxgraph.electrical.logic_gates.logic_gate;operation=xor;rotation=-180;" parent="1" vertex="1">
          <mxGeometry x="280" y="265" width="35" height="20" as="geometry" />
        </mxCell>
        <mxCell id="3qSw8xlSIoKtLvvU0-Wk-2" value="" style="endArrow=none;html=1;rounded=0;entryX=0;entryY=0.75;entryDx=0;entryDy=0;entryPerimeter=0;endFill=0;" parent="1" target="3qSw8xlSIoKtLvvU0-Wk-1" edge="1">
          <mxGeometry width="50" height="50" relative="1" as="geometry">
            <mxPoint x="430" y="320" as="sourcePoint" />
            <mxPoint x="395" y="280" as="targetPoint" />
            <Array as="points">
              <mxPoint x="430" y="270" />
            </Array>
          </mxGeometry>
        </mxCell>
        <mxCell id="3qSw8xlSIoKtLvvU0-Wk-3" value="" style="shape=ellipse;fillColor=#000000;strokeColor=none;html=1;sketch=0;fontFamily=Helvetica;fontSize=11;fontColor=default;labelBackgroundColor=default;" parent="1" vertex="1">
          <mxGeometry x="347" y="317" width="6" height="6" as="geometry" />
        </mxCell>
        <mxCell id="3qSw8xlSIoKtLvvU0-Wk-4" value="" style="shape=ellipse;fillColor=#000000;strokeColor=none;html=1;sketch=0;fontFamily=Helvetica;fontSize=11;fontColor=default;labelBackgroundColor=default;" parent="1" vertex="1">
          <mxGeometry x="427" y="317" width="6" height="6" as="geometry" />
        </mxCell>
        <mxCell id="3qSw8xlSIoKtLvvU0-Wk-5" value="" style="verticalLabelPosition=bottom;shadow=0;dashed=0;align=center;html=1;verticalAlign=top;shape=mxgraph.electrical.logic_gates.logic_gate;operation=xor;rotation=-180;" parent="1" vertex="1">
          <mxGeometry x="280" y="235" width="35" height="20" as="geometry" />
        </mxCell>
        <mxCell id="3qSw8xlSIoKtLvvU0-Wk-6" value="" style="endArrow=none;html=1;rounded=0;entryX=0;entryY=0.75;entryDx=0;entryDy=0;entryPerimeter=0;endFill=0;" parent="1" edge="1">
          <mxGeometry width="50" height="50" relative="1" as="geometry">
            <mxPoint x="510" y="320" as="sourcePoint" />
            <mxPoint x="315" y="250" as="targetPoint" />
            <Array as="points">
              <mxPoint x="510" y="250" />
            </Array>
          </mxGeometry>
        </mxCell>
        <mxCell id="3qSw8xlSIoKtLvvU0-Wk-7" value="" style="endArrow=none;html=1;rounded=0;entryX=0;entryY=0.75;entryDx=0;entryDy=0;entryPerimeter=0;endFill=0;" parent="1" edge="1">
          <mxGeometry width="50" height="50" relative="1" as="geometry">
            <mxPoint x="830" y="320" as="sourcePoint" />
            <mxPoint x="315" y="240" as="targetPoint" />
            <Array as="points">
              <mxPoint x="830" y="240" />
            </Array>
          </mxGeometry>
        </mxCell>
        <mxCell id="3qSw8xlSIoKtLvvU0-Wk-11" style="edgeStyle=orthogonalEdgeStyle;rounded=0;orthogonalLoop=1;jettySize=auto;html=1;exitX=1;exitY=0.5;exitDx=0;exitDy=0;exitPerimeter=0;entryX=0;entryY=0.333;entryDx=0;entryDy=0;entryPerimeter=0;" parent="1" source="3qSw8xlSIoKtLvvU0-Wk-8" target="oi3GXKmJwpbIhsuQLX9E-5" edge="1">
          <mxGeometry relative="1" as="geometry">
            <mxPoint x="160" y="320" as="targetPoint" />
          </mxGeometry>
        </mxCell>
        <mxCell id="3qSw8xlSIoKtLvvU0-Wk-8" value="" style="verticalLabelPosition=bottom;shadow=0;dashed=0;align=center;html=1;verticalAlign=top;shape=mxgraph.electrical.logic_gates.logic_gate;operation=xor;rotation=-180;" parent="1" vertex="1">
          <mxGeometry x="220" y="250" width="35" height="20" as="geometry" />
        </mxCell>
        <mxCell id="3qSw8xlSIoKtLvvU0-Wk-9" style="edgeStyle=orthogonalEdgeStyle;rounded=0;orthogonalLoop=1;jettySize=auto;html=1;exitX=1;exitY=0.5;exitDx=0;exitDy=0;exitPerimeter=0;entryX=0;entryY=0.75;entryDx=0;entryDy=0;entryPerimeter=0;endArrow=none;endFill=0;" parent="1" source="3qSw8xlSIoKtLvvU0-Wk-5" target="3qSw8xlSIoKtLvvU0-Wk-8" edge="1">
          <mxGeometry relative="1" as="geometry">
            <Array as="points">
              <mxPoint x="270" y="245" />
              <mxPoint x="270" y="255" />
            </Array>
          </mxGeometry>
        </mxCell>
        <mxCell id="3qSw8xlSIoKtLvvU0-Wk-10" style="edgeStyle=orthogonalEdgeStyle;rounded=0;orthogonalLoop=1;jettySize=auto;html=1;exitX=1;exitY=0.5;exitDx=0;exitDy=0;exitPerimeter=0;entryX=0;entryY=0.25;entryDx=0;entryDy=0;entryPerimeter=0;endArrow=none;endFill=0;" parent="1" source="3qSw8xlSIoKtLvvU0-Wk-1" target="3qSw8xlSIoKtLvvU0-Wk-8" edge="1">
          <mxGeometry relative="1" as="geometry">
            <mxPoint x="290" y="255" as="sourcePoint" />
            <mxPoint x="265" y="265" as="targetPoint" />
            <Array as="points">
              <mxPoint x="270" y="275" />
              <mxPoint x="270" y="265" />
            </Array>
          </mxGeometry>
        </mxCell>
        <mxCell id="3qSw8xlSIoKtLvvU0-Wk-12" value="clk" style="text;html=1;align=center;verticalAlign=middle;resizable=0;points=[];autosize=1;strokeColor=none;fillColor=none;" parent="1" vertex="1">
          <mxGeometry x="148" y="373" width="40" height="30" as="geometry" />
        </mxCell>
        <mxCell id="3qSw8xlSIoKtLvvU0-Wk-13" value="rst_n" style="text;html=1;align=center;verticalAlign=middle;resizable=0;points=[];autosize=1;strokeColor=none;fillColor=none;" parent="1" vertex="1">
          <mxGeometry x="137" y="384" width="50" height="30" as="geometry" />
        </mxCell>
        <mxCell id="3qSw8xlSIoKtLvvU0-Wk-14" value="rst" style="text;html=1;align=center;verticalAlign=middle;resizable=0;points=[];autosize=1;strokeColor=none;fillColor=none;fontSize=10;fontColor=#999999;" parent="1" vertex="1">
          <mxGeometry x="195" y="338" width="30" height="30" as="geometry" />
        </mxCell>
        <mxCell id="3qSw8xlSIoKtLvvU0-Wk-15" value="rst_n" style="text;html=1;align=center;verticalAlign=middle;resizable=0;points=[];autosize=1;strokeColor=none;fillColor=none;fontSize=10;fontColor=#999999;" parent="1" vertex="1">
          <mxGeometry x="221" y="338" width="50" height="30" as="geometry" />
        </mxCell>
        <mxCell id="3qSw8xlSIoKtLvvU0-Wk-16" value="rst" style="text;html=1;align=center;verticalAlign=middle;resizable=0;points=[];autosize=1;strokeColor=none;fillColor=none;fontSize=10;fontColor=#999999;" parent="1" vertex="1">
          <mxGeometry x="275" y="338" width="30" height="30" as="geometry" />
        </mxCell>
        <mxCell id="3qSw8xlSIoKtLvvU0-Wk-17" value="rst_n" style="text;html=1;align=center;verticalAlign=middle;resizable=0;points=[];autosize=1;strokeColor=none;fillColor=none;fontSize=10;fontColor=#999999;" parent="1" vertex="1">
          <mxGeometry x="301" y="338" width="50" height="30" as="geometry" />
        </mxCell>
        <mxCell id="3qSw8xlSIoKtLvvU0-Wk-18" value="rst" style="text;html=1;align=center;verticalAlign=middle;resizable=0;points=[];autosize=1;strokeColor=none;fillColor=none;fontSize=10;fontColor=#999999;" parent="1" vertex="1">
          <mxGeometry x="355" y="338" width="30" height="30" as="geometry" />
        </mxCell>
        <mxCell id="3qSw8xlSIoKtLvvU0-Wk-19" value="rst_n" style="text;html=1;align=center;verticalAlign=middle;resizable=0;points=[];autosize=1;strokeColor=none;fillColor=none;fontSize=10;fontColor=#999999;" parent="1" vertex="1">
          <mxGeometry x="381" y="338" width="50" height="30" as="geometry" />
        </mxCell>
        <mxCell id="3qSw8xlSIoKtLvvU0-Wk-20" value="rst" style="text;html=1;align=center;verticalAlign=middle;resizable=0;points=[];autosize=1;strokeColor=none;fillColor=none;fontSize=10;fontColor=#999999;" parent="1" vertex="1">
          <mxGeometry x="435" y="338" width="30" height="30" as="geometry" />
        </mxCell>
        <mxCell id="3qSw8xlSIoKtLvvU0-Wk-21" value="rst_n" style="text;html=1;align=center;verticalAlign=middle;resizable=0;points=[];autosize=1;strokeColor=none;fillColor=none;fontSize=10;fontColor=#999999;" parent="1" vertex="1">
          <mxGeometry x="460" y="338" width="50" height="30" as="geometry" />
        </mxCell>
        <mxCell id="3qSw8xlSIoKtLvvU0-Wk-22" value="rst" style="text;html=1;align=center;verticalAlign=middle;resizable=0;points=[];autosize=1;strokeColor=none;fillColor=none;fontSize=10;fontColor=#999999;" parent="1" vertex="1">
          <mxGeometry x="516" y="338" width="30" height="30" as="geometry" />
        </mxCell>
        <mxCell id="3qSw8xlSIoKtLvvU0-Wk-23" value="rst_n" style="text;html=1;align=center;verticalAlign=middle;resizable=0;points=[];autosize=1;strokeColor=none;fillColor=none;fontSize=10;fontColor=#999999;" parent="1" vertex="1">
          <mxGeometry x="541" y="338" width="50" height="30" as="geometry" />
        </mxCell>
        <mxCell id="3qSw8xlSIoKtLvvU0-Wk-24" value="rst" style="text;html=1;align=center;verticalAlign=middle;resizable=0;points=[];autosize=1;strokeColor=none;fillColor=none;fontSize=10;fontColor=#999999;" parent="1" vertex="1">
          <mxGeometry x="595" y="338" width="30" height="30" as="geometry" />
        </mxCell>
        <mxCell id="3qSw8xlSIoKtLvvU0-Wk-25" value="rst_n" style="text;html=1;align=center;verticalAlign=middle;resizable=0;points=[];autosize=1;strokeColor=none;fillColor=none;fontSize=10;fontColor=#999999;" parent="1" vertex="1">
          <mxGeometry x="621" y="338" width="50" height="30" as="geometry" />
        </mxCell>
        <mxCell id="3qSw8xlSIoKtLvvU0-Wk-26" value="rst" style="text;html=1;align=center;verticalAlign=middle;resizable=0;points=[];autosize=1;strokeColor=none;fillColor=none;fontSize=10;fontColor=#999999;" parent="1" vertex="1">
          <mxGeometry x="675" y="338" width="30" height="30" as="geometry" />
        </mxCell>
        <mxCell id="3qSw8xlSIoKtLvvU0-Wk-27" value="rst_n" style="text;html=1;align=center;verticalAlign=middle;resizable=0;points=[];autosize=1;strokeColor=none;fillColor=none;fontSize=10;fontColor=#999999;" parent="1" vertex="1">
          <mxGeometry x="700" y="338" width="50" height="30" as="geometry" />
        </mxCell>
        <mxCell id="3qSw8xlSIoKtLvvU0-Wk-28" value="rst" style="text;html=1;align=center;verticalAlign=middle;resizable=0;points=[];autosize=1;strokeColor=none;fillColor=none;fontSize=10;fontColor=#999999;" parent="1" vertex="1">
          <mxGeometry x="755" y="338" width="30" height="30" as="geometry" />
        </mxCell>
        <mxCell id="3qSw8xlSIoKtLvvU0-Wk-29" value="rst_n" style="text;html=1;align=center;verticalAlign=middle;resizable=0;points=[];autosize=1;strokeColor=none;fillColor=none;fontSize=10;fontColor=#999999;" parent="1" vertex="1">
          <mxGeometry x="780" y="338" width="50" height="30" as="geometry" />
        </mxCell>
        <mxCell id="3qSw8xlSIoKtLvvU0-Wk-30" value="" style="shape=ellipse;fillColor=#000000;strokeColor=none;html=1;sketch=0;fontFamily=Helvetica;fontSize=11;fontColor=default;labelBackgroundColor=default;" parent="1" vertex="1">
          <mxGeometry x="827" y="317" width="6" height="6" as="geometry" />
        </mxCell>
        <mxCell id="3qSw8xlSIoKtLvvU0-Wk-31" value="" style="shape=ellipse;fillColor=#000000;strokeColor=none;html=1;sketch=0;fontFamily=Helvetica;fontSize=11;fontColor=default;labelBackgroundColor=default;" parent="1" vertex="1">
          <mxGeometry x="507" y="317" width="6" height="6" as="geometry" />
        </mxCell>
        <mxCell id="3qSw8xlSIoKtLvvU0-Wk-32" value="out" style="text;html=1;align=center;verticalAlign=middle;resizable=0;points=[];autosize=1;strokeColor=none;fillColor=none;" parent="1" vertex="1">
          <mxGeometry x="843" y="304" width="40" height="30" as="geometry" />
        </mxCell>
        <mxCell id="3qSw8xlSIoKtLvvU0-Wk-33" value="&lt;p style=&quot;line-height: 0%;&quot;&gt;&lt;span style=&quot;background-color: initial;&quot;&gt;&lt;b&gt;LFSR&lt;/b&gt;&lt;/span&gt;&lt;/p&gt;&lt;p style=&quot;line-height: 0%;&quot;&gt;&lt;span style=&quot;font-size: 9px; background-color: initial;&quot;&gt;Many_to_One&lt;/span&gt;&lt;br&gt;&lt;/p&gt;&lt;p style=&quot;line-height: 0%;&quot;&gt;&lt;font size=&quot;1&quot;&gt;8bit&lt;/font&gt;&lt;/p&gt;&lt;p&gt;&lt;/p&gt;" style="rounded=1;whiteSpace=wrap;html=1;arcSize=10;" parent="1" vertex="1">
          <mxGeometry x="550" y="580" width="80" height="50" as="geometry" />
        </mxCell>
        <mxCell id="3qSw8xlSIoKtLvvU0-Wk-52" style="edgeStyle=orthogonalEdgeStyle;rounded=0;orthogonalLoop=1;jettySize=auto;html=1;exitX=1;exitY=0.5;exitDx=0;exitDy=0;" parent="1" edge="1">
          <mxGeometry relative="1" as="geometry">
            <mxPoint x="790" y="650.059405940594" as="targetPoint" />
            <mxPoint x="770" y="650" as="sourcePoint" />
          </mxGeometry>
        </mxCell>
        <mxCell id="3qSw8xlSIoKtLvvU0-Wk-34" value="&lt;p style=&quot;line-height: 0%;&quot;&gt;&lt;span style=&quot;background-color: initial;&quot;&gt;&lt;b&gt;Scan Chain&lt;/b&gt;&lt;/span&gt;&lt;/p&gt;&lt;p style=&quot;line-height: 0%;&quot;&gt;&lt;span style=&quot;background-color: initial;&quot;&gt;&lt;b&gt;Design&lt;/b&gt;&lt;/span&gt;&lt;/p&gt;&lt;p&gt;&lt;/p&gt;" style="rounded=1;whiteSpace=wrap;html=1;arcSize=8;" parent="1" vertex="1">
          <mxGeometry x="670" y="600" width="100" height="90" as="geometry" />
        </mxCell>
        <mxCell id="3qSw8xlSIoKtLvvU0-Wk-35" value="" style="triangle;whiteSpace=wrap;html=1;rotation=-90;" parent="1" vertex="1">
          <mxGeometry x="586" y="618.5" width="8" height="14.5" as="geometry" />
        </mxCell>
        <mxCell id="3qSw8xlSIoKtLvvU0-Wk-36" value="" style="endArrow=classic;html=1;rounded=0;" parent="1" edge="1">
          <mxGeometry width="50" height="50" relative="1" as="geometry">
            <mxPoint x="530" y="660" as="sourcePoint" />
            <mxPoint x="670" y="660" as="targetPoint" />
          </mxGeometry>
        </mxCell>
        <mxCell id="3qSw8xlSIoKtLvvU0-Wk-37" value="" style="endArrow=classic;html=1;rounded=0;" parent="1" edge="1">
          <mxGeometry width="50" height="50" relative="1" as="geometry">
            <mxPoint x="530" y="670" as="sourcePoint" />
            <mxPoint x="670" y="670" as="targetPoint" />
          </mxGeometry>
        </mxCell>
        <mxCell id="3qSw8xlSIoKtLvvU0-Wk-38" value="" style="triangle;whiteSpace=wrap;html=1;rotation=0;" parent="1" vertex="1">
          <mxGeometry x="670" y="663" width="8" height="14.5" as="geometry" />
        </mxCell>
        <mxCell id="3qSw8xlSIoKtLvvU0-Wk-39" value="" style="endArrow=classic;html=1;rounded=0;entryX=0.25;entryY=1;entryDx=0;entryDy=0;endSize=4;" parent="1" target="3qSw8xlSIoKtLvvU0-Wk-33" edge="1">
          <mxGeometry width="50" height="50" relative="1" as="geometry">
            <mxPoint x="570" y="660" as="sourcePoint" />
            <mxPoint x="560" y="690" as="targetPoint" />
          </mxGeometry>
        </mxCell>
        <mxCell id="3qSw8xlSIoKtLvvU0-Wk-40" value="" style="endArrow=classic;html=1;rounded=0;" parent="1" edge="1">
          <mxGeometry width="50" height="50" relative="1" as="geometry">
            <mxPoint x="590" y="670" as="sourcePoint" />
            <mxPoint x="590" y="630" as="targetPoint" />
          </mxGeometry>
        </mxCell>
        <mxCell id="3qSw8xlSIoKtLvvU0-Wk-41" value="" style="endArrow=classic;html=1;rounded=0;" parent="1" edge="1">
          <mxGeometry width="50" height="50" relative="1" as="geometry">
            <mxPoint x="650" y="650" as="sourcePoint" />
            <mxPoint x="670" y="650" as="targetPoint" />
          </mxGeometry>
        </mxCell>
        <mxCell id="3qSw8xlSIoKtLvvU0-Wk-42" value="scan_en" style="text;html=1;align=center;verticalAlign=middle;resizable=0;points=[];autosize=1;strokeColor=none;fillColor=none;" parent="1" vertex="1">
          <mxGeometry x="590" y="633.5" width="70" height="30" as="geometry" />
        </mxCell>
        <mxCell id="3qSw8xlSIoKtLvvU0-Wk-43" value="" style="shape=ellipse;fillColor=#000000;strokeColor=none;html=1;sketch=0;fontFamily=Helvetica;fontSize=11;fontColor=default;labelBackgroundColor=default;" parent="1" vertex="1">
          <mxGeometry x="567" y="657" width="6" height="6" as="geometry" />
        </mxCell>
        <mxCell id="3qSw8xlSIoKtLvvU0-Wk-44" value="" style="shape=ellipse;fillColor=#000000;strokeColor=none;html=1;sketch=0;fontFamily=Helvetica;fontSize=11;fontColor=default;labelBackgroundColor=default;" parent="1" vertex="1">
          <mxGeometry x="587" y="667" width="6" height="6" as="geometry" />
        </mxCell>
        <mxCell id="3qSw8xlSIoKtLvvU0-Wk-45" value="clk" style="text;html=1;align=center;verticalAlign=middle;resizable=0;points=[];autosize=1;strokeColor=none;fillColor=none;" parent="1" vertex="1">
          <mxGeometry x="500" y="655" width="40" height="30" as="geometry" />
        </mxCell>
        <mxCell id="3qSw8xlSIoKtLvvU0-Wk-46" value="rst_n" style="text;html=1;align=center;verticalAlign=middle;resizable=0;points=[];autosize=1;strokeColor=none;fillColor=none;" parent="1" vertex="1">
          <mxGeometry x="489" y="643" width="50" height="30" as="geometry" />
        </mxCell>
        <mxCell id="3qSw8xlSIoKtLvvU0-Wk-47" value="" style="endArrow=classic;html=1;rounded=0;entryX=0;entryY=0.222;entryDx=0;entryDy=0;entryPerimeter=0;" parent="1" target="3qSw8xlSIoKtLvvU0-Wk-34" edge="1">
          <mxGeometry width="50" height="50" relative="1" as="geometry">
            <mxPoint x="630" y="619.9" as="sourcePoint" />
            <mxPoint x="650" y="619.9" as="targetPoint" />
          </mxGeometry>
        </mxCell>
        <mxCell id="3qSw8xlSIoKtLvvU0-Wk-49" value="" style="endArrow=classic;html=1;rounded=0;" parent="1" edge="1">
          <mxGeometry width="50" height="50" relative="1" as="geometry">
            <mxPoint x="650" y="620" as="sourcePoint" />
            <mxPoint x="790" y="580" as="targetPoint" />
            <Array as="points">
              <mxPoint x="650" y="580" />
            </Array>
          </mxGeometry>
        </mxCell>
        <mxCell id="3qSw8xlSIoKtLvvU0-Wk-50" value="" style="shape=ellipse;fillColor=#000000;strokeColor=none;html=1;sketch=0;fontFamily=Helvetica;fontSize=11;fontColor=default;labelBackgroundColor=default;" parent="1" vertex="1">
          <mxGeometry x="647" y="617" width="6" height="6" as="geometry" />
        </mxCell>
        <mxCell id="3qSw8xlSIoKtLvvU0-Wk-51" value="scan_in" style="text;html=1;align=center;verticalAlign=middle;resizable=0;points=[];autosize=1;strokeColor=none;fillColor=none;" parent="1" vertex="1">
          <mxGeometry x="783" y="564" width="60" height="30" as="geometry" />
        </mxCell>
        <mxCell id="3qSw8xlSIoKtLvvU0-Wk-53" value="scan_out" style="text;html=1;align=center;verticalAlign=middle;resizable=0;points=[];autosize=1;strokeColor=none;fillColor=none;" parent="1" vertex="1">
          <mxGeometry x="782" y="634.5" width="70" height="30" as="geometry" />
        </mxCell>
        <mxCell id="3qSw8xlSIoKtLvvU0-Wk-55" value="&lt;div style=&quot;color: rgb(248, 248, 242); background-color: rgb(38, 41, 44); font-family: &amp;quot;Fira Code&amp;quot;, Consolas, &amp;quot;Courier New&amp;quot;, monospace, Menlo, Monaco, &amp;quot;Courier New&amp;quot;, monospace; font-size: 16px; line-height: 24px; white-space-collapse: preserve;&quot;&gt;Top Module&lt;/div&gt;" style="text;html=1;align=center;verticalAlign=middle;resizable=0;points=[];autosize=1;strokeColor=none;fillColor=none;" parent="1" vertex="1">
          <mxGeometry x="454" y="500" width="120" height="40" as="geometry" />
        </mxCell>
        <mxCell id="3qSw8xlSIoKtLvvU0-Wk-56" value="" style="rounded=0;whiteSpace=wrap;html=1;fillColor=none;" parent="1" vertex="1">
          <mxGeometry x="120" y="200" width="780" height="240" as="geometry" />
        </mxCell>
        <mxCell id="3qSw8xlSIoKtLvvU0-Wk-57" value="&lt;div style=&quot;color: rgb(248, 248, 242); background-color: rgb(38, 41, 44); font-family: &amp;quot;Fira Code&amp;quot;, Consolas, &amp;quot;Courier New&amp;quot;, monospace, Menlo, Monaco, &amp;quot;Courier New&amp;quot;, monospace; font-size: 16px; line-height: 24px; white-space-collapse: preserve;&quot;&gt;LSFR Many_to_One 8bit&lt;/div&gt;" style="text;html=1;align=center;verticalAlign=middle;resizable=0;points=[];autosize=1;strokeColor=none;fillColor=none;" parent="1" vertex="1">
          <mxGeometry x="93" y="160" width="230" height="40" as="geometry" />
        </mxCell>
        <mxCell id="3qSw8xlSIoKtLvvU0-Wk-58" value="rst_n" style="text;html=1;align=center;verticalAlign=middle;resizable=0;points=[];autosize=1;strokeColor=none;fillColor=none;fontColor=#999999;fontSize=9;" parent="1" vertex="1">
          <mxGeometry x="547" y="613" width="40" height="20" as="geometry" />
        </mxCell>
        <mxCell id="3qSw8xlSIoKtLvvU0-Wk-59" value="rst_n" style="text;html=1;align=center;verticalAlign=middle;resizable=0;points=[];autosize=1;strokeColor=none;fillColor=none;fontColor=#999999;fontSize=7;" parent="1" vertex="1">
          <mxGeometry x="659" y="649" width="40" height="20" as="geometry" />
        </mxCell>
        <mxCell id="3qSw8xlSIoKtLvvU0-Wk-60" value="scan_en" style="text;html=1;align=center;verticalAlign=middle;resizable=0;points=[];autosize=1;strokeColor=none;fillColor=none;fontColor=#999999;fontSize=7;" parent="1" vertex="1">
          <mxGeometry x="660" y="638.5" width="50" height="20" as="geometry" />
        </mxCell>
        <mxCell id="3qSw8xlSIoKtLvvU0-Wk-61" value="scan_out" style="text;html=1;align=center;verticalAlign=middle;resizable=0;points=[];autosize=1;strokeColor=none;fillColor=none;fontColor=#999999;fontSize=7;" parent="1" vertex="1">
          <mxGeometry x="729" y="639" width="50" height="20" as="geometry" />
        </mxCell>
        <mxCell id="3qSw8xlSIoKtLvvU0-Wk-62" value="scan_in" style="text;html=1;align=center;verticalAlign=middle;resizable=0;points=[];autosize=1;strokeColor=none;fillColor=none;fontColor=#999999;fontSize=7;" parent="1" vertex="1">
          <mxGeometry x="659" y="609" width="50" height="20" as="geometry" />
        </mxCell>
        <mxCell id="8GbpeocIH_F-kj9Aw5r_-1" value="D" style="text;html=1;align=center;verticalAlign=middle;resizable=0;points=[];autosize=1;strokeColor=none;fillColor=none;fontColor=#999999;" parent="1" vertex="1">
          <mxGeometry x="192" y="305" width="30" height="30" as="geometry" />
        </mxCell>
        <mxCell id="8GbpeocIH_F-kj9Aw5r_-2" value="Q" style="text;html=1;align=center;verticalAlign=middle;resizable=0;points=[];autosize=1;strokeColor=none;fillColor=none;fontColor=#999999;" parent="1" vertex="1">
          <mxGeometry x="237" y="305" width="30" height="30" as="geometry" />
        </mxCell>
        <mxCell id="8GbpeocIH_F-kj9Aw5r_-3" value="D" style="text;html=1;align=center;verticalAlign=middle;resizable=0;points=[];autosize=1;strokeColor=none;fillColor=none;fontColor=#999999;" parent="1" vertex="1">
          <mxGeometry x="271.5" y="305" width="30" height="30" as="geometry" />
        </mxCell>
        <mxCell id="8GbpeocIH_F-kj9Aw5r_-4" value="Q" style="text;html=1;align=center;verticalAlign=middle;resizable=0;points=[];autosize=1;strokeColor=none;fillColor=none;fontColor=#999999;" parent="1" vertex="1">
          <mxGeometry x="316.5" y="305" width="30" height="30" as="geometry" />
        </mxCell>
        <mxCell id="8GbpeocIH_F-kj9Aw5r_-5" value="D" style="text;html=1;align=center;verticalAlign=middle;resizable=0;points=[];autosize=1;strokeColor=none;fillColor=none;fontColor=#999999;" parent="1" vertex="1">
          <mxGeometry x="352" y="305" width="30" height="30" as="geometry" />
        </mxCell>
        <mxCell id="8GbpeocIH_F-kj9Aw5r_-6" value="Q" style="text;html=1;align=center;verticalAlign=middle;resizable=0;points=[];autosize=1;strokeColor=none;fillColor=none;fontColor=#999999;" parent="1" vertex="1">
          <mxGeometry x="397" y="305" width="30" height="30" as="geometry" />
        </mxCell>
        <mxCell id="8GbpeocIH_F-kj9Aw5r_-7" value="D" style="text;html=1;align=center;verticalAlign=middle;resizable=0;points=[];autosize=1;strokeColor=none;fillColor=none;fontColor=#999999;" parent="1" vertex="1">
          <mxGeometry x="431.5" y="305" width="30" height="30" as="geometry" />
        </mxCell>
        <mxCell id="8GbpeocIH_F-kj9Aw5r_-8" value="Q" style="text;html=1;align=center;verticalAlign=middle;resizable=0;points=[];autosize=1;strokeColor=none;fillColor=none;fontColor=#999999;" parent="1" vertex="1">
          <mxGeometry x="476.5" y="305" width="30" height="30" as="geometry" />
        </mxCell>
        <mxCell id="8GbpeocIH_F-kj9Aw5r_-9" value="D" style="text;html=1;align=center;verticalAlign=middle;resizable=0;points=[];autosize=1;strokeColor=none;fillColor=none;fontColor=#999999;" parent="1" vertex="1">
          <mxGeometry x="511.5" y="305" width="30" height="30" as="geometry" />
        </mxCell>
        <mxCell id="8GbpeocIH_F-kj9Aw5r_-10" value="Q" style="text;html=1;align=center;verticalAlign=middle;resizable=0;points=[];autosize=1;strokeColor=none;fillColor=none;fontColor=#999999;" parent="1" vertex="1">
          <mxGeometry x="556.5" y="305" width="30" height="30" as="geometry" />
        </mxCell>
        <mxCell id="8GbpeocIH_F-kj9Aw5r_-11" value="D" style="text;html=1;align=center;verticalAlign=middle;resizable=0;points=[];autosize=1;strokeColor=none;fillColor=none;fontColor=#999999;" parent="1" vertex="1">
          <mxGeometry x="591" y="305" width="30" height="30" as="geometry" />
        </mxCell>
        <mxCell id="8GbpeocIH_F-kj9Aw5r_-12" value="Q" style="text;html=1;align=center;verticalAlign=middle;resizable=0;points=[];autosize=1;strokeColor=none;fillColor=none;fontColor=#999999;" parent="1" vertex="1">
          <mxGeometry x="636" y="305" width="30" height="30" as="geometry" />
        </mxCell>
        <mxCell id="8GbpeocIH_F-kj9Aw5r_-13" value="D" style="text;html=1;align=center;verticalAlign=middle;resizable=0;points=[];autosize=1;strokeColor=none;fillColor=none;fontColor=#999999;" parent="1" vertex="1">
          <mxGeometry x="671.5" y="305" width="30" height="30" as="geometry" />
        </mxCell>
        <mxCell id="8GbpeocIH_F-kj9Aw5r_-14" value="Q" style="text;html=1;align=center;verticalAlign=middle;resizable=0;points=[];autosize=1;strokeColor=none;fillColor=none;fontColor=#999999;" parent="1" vertex="1">
          <mxGeometry x="716.5" y="305" width="30" height="30" as="geometry" />
        </mxCell>
        <mxCell id="8GbpeocIH_F-kj9Aw5r_-15" value="D" style="text;html=1;align=center;verticalAlign=middle;resizable=0;points=[];autosize=1;strokeColor=none;fillColor=none;fontColor=#999999;" parent="1" vertex="1">
          <mxGeometry x="752" y="305" width="30" height="30" as="geometry" />
        </mxCell>
        <mxCell id="8GbpeocIH_F-kj9Aw5r_-16" value="Q" style="text;html=1;align=center;verticalAlign=middle;resizable=0;points=[];autosize=1;strokeColor=none;fillColor=none;fontColor=#999999;" parent="1" vertex="1">
          <mxGeometry x="797" y="305" width="30" height="30" as="geometry" />
        </mxCell>
      </root>
    </mxGraphModel>
  </diagram>
</mxfile>
